<svg width="55" height="62" viewBox="0 0 55 62" fill="none" xmlns="http://www.w3.org/2000/svg">
<path d="M7.63 56H8.974L5.46 46.298H3.99L0.462 56H1.806L2.59 53.83H6.846L7.63 56ZM6.482 52.794H2.954L4.718 47.866L6.482 52.794ZM16.1256 56H17.3856V51.478C17.3856 49.28 16.0276 48.188 14.2496 48.188C13.2136 48.188 12.2896 48.622 11.7856 49.42V48.328H10.5116V56H11.7856V51.758C11.7856 50.106 12.6816 49.294 13.9836 49.294C15.2716 49.294 16.1256 50.092 16.1256 51.66V56ZM18.9907 52.136C18.9907 54.516 20.5727 56.126 22.6307 56.126C24.0307 56.126 25.0247 55.412 25.4867 54.558V56H26.7747V45.64H25.4867V49.7C24.9547 48.818 23.8487 48.202 22.6447 48.202C20.5727 48.202 18.9907 49.742 18.9907 52.136ZM25.4867 52.15C25.4867 53.956 24.2827 55.006 22.8827 55.006C21.4827 55.006 20.2927 53.942 20.2927 52.136C20.2927 50.33 21.4827 49.308 22.8827 49.308C24.2827 49.308 25.4867 50.372 25.4867 52.15ZM30.2016 51.828C30.2016 50.05 31.1256 49.504 32.3436 49.504H32.6796V48.188C31.4616 48.188 30.6356 48.72 30.2016 49.574V48.328H28.9276V56H30.2016V51.828ZM41.4303 52.15C41.4303 49.728 39.7363 48.202 37.5523 48.202C35.3823 48.202 33.6743 49.728 33.6743 52.15C33.6743 54.586 35.3263 56.126 37.4963 56.126C39.6803 56.126 41.4303 54.586 41.4303 52.15ZM34.9763 52.15C34.9763 50.218 36.1943 49.308 37.5383 49.308C38.8543 49.308 40.1283 50.218 40.1283 52.15C40.1283 54.096 38.8263 55.006 37.4963 55.006C36.1663 55.006 34.9763 54.096 34.9763 52.15ZM43.1053 56H44.3793V48.328H43.1053V56ZM43.7633 47.082C44.2253 47.082 44.6033 46.704 44.6033 46.214C44.6033 45.724 44.2253 45.346 43.7633 45.346C43.2733 45.346 42.8953 45.724 42.8953 46.214C42.8953 46.704 43.2733 47.082 43.7633 47.082ZM46.0747 52.136C46.0747 54.516 47.6567 56.126 49.7147 56.126C51.1147 56.126 52.1087 55.412 52.5707 54.558V56H53.8587V45.64H52.5707V49.7C52.0387 48.818 50.9327 48.202 49.7287 48.202C47.6567 48.202 46.0747 49.742 46.0747 52.136ZM52.5707 52.15C52.5707 53.956 51.3667 55.006 49.9667 55.006C48.5667 55.006 47.3767 53.942 47.3767 52.136C47.3767 50.33 48.5667 49.308 49.9667 49.308C51.3667 49.308 52.5707 50.372 52.5707 52.15Z" fill="white"/>
<path d="M19.0001 25.5H21.1001V27.6C21.1001 28.2366 21.353 28.847 21.8031 29.2971C22.2532 29.7472 22.8636 30 23.5001 30C24.1366 30 24.7471 29.7472 25.1972 29.2971C25.6473 28.847 25.9001 28.2366 25.9001 27.6V25.5H30.1001V27.6C30.1001 28.2366 30.353 28.847 30.8031 29.2971C31.2532 29.7472 31.8636 30 32.5001 30C33.1366 30 33.7471 29.7472 34.1972 29.2971C34.6473 28.847 34.9001 28.2366 34.9001 27.6V25.5H37.0001V12.3H19.0001V25.5Z" fill="white"/>
<path d="M37.3693 0.162005C37.1873 0.0553156 36.9801 -0.000628143 36.7693 5.32044e-06C36.5588 0.000221166 36.3521 0.0557711 36.17 0.161082C35.9878 0.266394 35.8365 0.417763 35.7313 0.600005L33.9313 3.72901C32.2908 2.2943 30.1856 1.50354 28.0063 1.50354C25.827 1.50354 23.7217 2.2943 22.0813 3.72901L20.2693 0.600005C20.164 0.417763 20.0127 0.266394 19.8306 0.161082C19.6484 0.0557711 19.4417 0.000221166 19.2313 5.32044e-06C19.0204 -0.000628143 18.8132 0.0553156 18.6313 0.162005C18.3557 0.320835 18.1544 0.582583 18.0717 0.889727C17.989 1.19687 18.0317 1.52428 18.1903 1.80001L20.4193 5.65801C19.4898 7.10164 18.997 8.78302 19.0003 10.5H37.0003C37.0035 8.78302 36.5108 7.10164 35.5813 5.65801L37.8103 1.80001C37.9688 1.52428 38.0115 1.19687 37.9288 0.889727C37.8461 0.582583 37.6448 0.320835 37.3693 0.162005ZM24.5503 8.10001C24.3723 8.10001 24.1982 8.04722 24.0502 7.94833C23.9022 7.84943 23.7869 7.70887 23.7188 7.54442C23.6506 7.37997 23.6328 7.19901 23.6675 7.02442C23.7023 6.84984 23.788 6.68948 23.9139 6.56361C24.0397 6.43774 24.2001 6.35203 24.3747 6.3173C24.5493 6.28257 24.7302 6.3004 24.8947 6.36851C25.0591 6.43663 25.1997 6.55199 25.2986 6.69999C25.3975 6.848 25.4503 7.022 25.4503 7.20001C25.4503 7.4387 25.3554 7.66762 25.1867 7.8364C25.0179 8.00518 24.789 8.10001 24.5503 8.10001ZM31.4503 8.10001C31.2723 8.10001 31.0982 8.04722 30.9502 7.94833C30.8022 7.84943 30.6869 7.70887 30.6188 7.54442C30.5506 7.37997 30.5328 7.19901 30.5675 7.02442C30.6023 6.84984 30.688 6.68948 30.8139 6.56361C30.9397 6.43774 31.1001 6.35203 31.2747 6.3173C31.4493 6.28257 31.6302 6.3004 31.7947 6.36851C31.9591 6.43663 32.0997 6.55199 32.1986 6.69999C32.2975 6.848 32.3503 7.022 32.3503 7.20001C32.3503 7.4387 32.2554 7.66762 32.0867 7.8364C31.9179 8.00518 31.689 8.10001 31.4503 8.10001Z" fill="white"/>
<path d="M41.1999 12.3C40.7225 12.3 40.2647 12.4897 39.9271 12.8273C39.5895 13.1648 39.3999 13.6227 39.3999 14.1V20.1C39.3999 20.5774 39.5895 21.0353 39.9271 21.3728C40.2647 21.7104 40.7225 21.9 41.1999 21.9C41.6773 21.9 42.1351 21.7104 42.4727 21.3728C42.8103 21.0353 42.9999 20.5774 42.9999 20.1V14.1C42.9999 13.6227 42.8103 13.1648 42.4727 12.8273C42.1351 12.4897 41.6773 12.3 41.1999 12.3Z" fill="white"/>
<path d="M14.8 12.3C14.3226 12.3 13.8648 12.4897 13.5272 12.8273C13.1896 13.1648 13 13.6227 13 14.1V20.1C13 20.5774 13.1896 21.0353 13.5272 21.3728C13.8648 21.7104 14.3226 21.9 14.8 21.9C15.2774 21.9 15.7352 21.7104 16.0728 21.3728C16.4104 21.0353 16.6 20.5774 16.6 20.1V14.1C16.6 13.6227 16.4104 13.1648 16.0728 12.8273C15.7352 12.4897 15.2774 12.3 14.8 12.3Z" fill="white"/>
</svg>
