<svg width="69" height="62" viewBox="0 0 69 62" fill="none" xmlns="http://www.w3.org/2000/svg">
<path d="M7.63 56H8.974L5.46 46.298H3.99L0.462 56H1.806L2.59 53.83H6.846L7.63 56ZM6.482 52.794H2.954L4.718 47.866L6.482 52.794ZM11.7856 49.742V48.328H10.5116V59.64H11.7856V54.586C12.2616 55.37 13.2556 56.126 14.6556 56.126C16.7136 56.126 18.2956 54.516 18.2956 52.136C18.2956 49.742 16.7136 48.202 14.6556 48.202C13.2556 48.202 12.2476 48.93 11.7856 49.742ZM16.9936 52.136C16.9936 53.942 15.8036 55.006 14.3896 55.006C13.0036 55.006 11.7856 53.956 11.7856 52.15C11.7856 50.372 13.0036 49.308 14.3896 49.308C15.8036 49.308 16.9936 50.33 16.9936 52.136ZM21.2465 49.742V48.328H19.9725V59.64H21.2465V54.586C21.7225 55.37 22.7165 56.126 24.1165 56.126C26.1745 56.126 27.7565 54.516 27.7565 52.136C27.7565 49.742 26.1745 48.202 24.1165 48.202C22.7165 48.202 21.7085 48.93 21.2465 49.742ZM26.4545 52.136C26.4545 53.942 25.2645 55.006 23.8505 55.006C22.4645 55.006 21.2465 53.956 21.2465 52.15C21.2465 50.372 22.4645 49.308 23.8505 49.308C25.2645 49.308 26.4545 50.33 26.4545 52.136ZM39.5079 53.34C39.5079 49.728 34.2439 51.296 34.2439 48.776C34.2439 47.726 35.0699 47.18 36.1199 47.208C37.3099 47.222 37.9259 47.964 38.0099 48.622H39.4099C39.2559 47.138 38.0379 46.116 36.1759 46.116C34.2439 46.116 32.9419 47.208 32.9419 48.818C32.9419 52.444 38.2199 50.764 38.2199 53.396C38.2199 54.32 37.4919 55.02 36.2599 55.02C34.9019 55.02 34.3279 54.208 34.2439 53.396H32.8859C32.9139 55.006 34.2999 56.098 36.2599 56.098C38.3739 56.098 39.5079 54.726 39.5079 53.34ZM41.6627 53.9C41.6627 55.44 42.4327 56 43.7907 56H44.9387V54.922H44.0007C43.2167 54.922 42.9367 54.656 42.9367 53.9V49.378H44.9387V48.328H42.9367V46.396H41.6627V48.328H40.6687V49.378H41.6627V53.9ZM53.7623 52.15C53.7623 49.728 52.0683 48.202 49.8843 48.202C47.7143 48.202 46.0063 49.728 46.0063 52.15C46.0063 54.586 47.6583 56.126 49.8283 56.126C52.0123 56.126 53.7623 54.586 53.7623 52.15ZM47.3083 52.15C47.3083 50.218 48.5263 49.308 49.8703 49.308C51.1863 49.308 52.4603 50.218 52.4603 52.15C52.4603 54.096 51.1583 55.006 49.8283 55.006C48.4983 55.006 47.3083 54.096 47.3083 52.15ZM56.7114 51.828C56.7114 50.05 57.6354 49.504 58.8534 49.504H59.1894V48.188C57.9714 48.188 57.1454 48.72 56.7114 49.574V48.328H55.4374V56H56.7114V51.828ZM63.922 49.28C65.238 49.28 66.358 50.106 66.344 51.604H61.5C61.64 50.106 62.676 49.28 63.922 49.28ZM67.506 53.634H66.134C65.854 54.46 65.126 55.048 63.978 55.048C62.676 55.048 61.584 54.194 61.486 52.64H67.618C67.646 52.374 67.66 52.15 67.66 51.87C67.66 49.77 66.204 48.202 63.978 48.202C61.738 48.202 60.184 49.728 60.184 52.15C60.184 54.586 61.794 56.126 63.978 56.126C65.882 56.126 67.114 55.034 67.506 53.634Z" fill="white"/>
<path d="M40.3384 7.11145C37.6039 7.11145 36.4483 8.41628 34.544 8.41628C32.5915 8.41628 31.1022 7.12094 28.7326 7.12094C26.4132 7.12094 23.9399 8.537 22.3692 10.9493C20.1637 14.3511 20.5381 20.7579 24.1101 26.2159C25.3878 28.1698 27.0941 30.361 29.3321 30.3847H29.3728C31.3178 30.3847 31.8956 29.1111 34.5724 29.0962H34.6131C37.2499 29.0962 37.7789 30.3773 39.7158 30.3773H39.7565C41.9945 30.3535 43.7924 27.9256 45.0701 25.9792C45.9897 24.5795 46.3315 23.8769 47.0368 22.2933C41.8697 20.332 41.0396 13.0069 46.1497 10.1985C44.5899 8.24538 42.398 7.11416 40.3316 7.11416L40.3384 7.11145Z" fill="white"/>
<path d="M39.7359 0C38.1083 0.110544 36.2094 1.14681 35.0971 2.49979C34.088 3.72595 33.2579 5.54484 33.5834 7.3088H33.7136C35.4471 7.3088 37.2212 6.26507 38.2575 4.92769C39.2558 3.65474 40.0126 1.85077 39.7359 0Z" fill="white"/>
</svg>
