<svg width="51" height="62" viewBox="0 0 51 62" fill="none" xmlns="http://www.w3.org/2000/svg">
<path d="M40.5069 0H12.1808C10.977 0 10 0.983106 10 2.19513V22.3151C10 23.5291 10.977 24.5102 12.1808 24.5102H23.0461C23.0461 24.5102 21.1371 28.9025 15.9068 28.9025V30.0001H19.7493H29.0857H36.225V28.9025C30.8476 28.9025 29.6315 24.5102 29.6315 24.5102H40.5049C41.7067 24.5102 42.6816 23.5291 42.6816 22.3151V2.19513C42.6857 0.983106 41.7087 0 40.5069 0ZM26.3429 24.0585C25.6663 24.0585 25.1186 23.5107 25.1186 22.8342C25.1186 22.1597 25.6663 21.612 26.3429 21.612C27.0173 21.612 27.5671 22.1597 27.5671 22.8342C27.5651 23.5107 27.0173 24.0585 26.3429 24.0585ZM40.3496 20.9498H12.3362V2.33411H40.3516L40.3496 20.9498Z" fill="white"/>
<path d="M23.9476 17.3259C24.7508 17.2932 25.0554 16.8047 26.0262 16.8047C26.9991 16.8047 27.2709 17.3259 28.1191 17.3095C28.9837 17.2932 29.5315 16.5226 30.0588 15.7521C30.672 14.8569 30.9233 13.9903 30.9397 13.9474C30.9193 13.9371 29.2555 13.2994 29.2371 11.3823C29.2208 9.77579 30.5493 9.00525 30.6065 8.96642C29.8626 7.87703 28.6996 7.72783 28.2867 7.71148C27.3016 7.61133 26.3614 8.29194 25.8586 8.29194C25.3599 8.29194 24.5853 7.72578 23.7677 7.74009C22.6906 7.75644 21.6993 8.36756 21.1434 9.33023C20.0254 11.2719 20.8572 14.1456 21.9466 15.7214C22.478 16.492 23.1137 17.3565 23.9476 17.3259Z" fill="white"/>
<path d="M28.2996 4.64368C27.662 4.67025 26.8914 5.0688 26.4315 5.6043C26.0228 6.08052 25.663 6.8388 25.7591 7.56642C26.4724 7.62161 27.198 7.20466 27.6415 6.66916C28.083 6.13162 28.3814 5.38765 28.2996 4.64368Z" fill="white"/>
<path d="M1.078 56H2.352V48.762L5.586 56H6.482L9.702 48.776V56H10.976V46.312H9.618L6.034 54.32L2.45 46.312H1.078V56ZM12.6606 52.136C12.6606 54.516 14.2426 56.126 16.2866 56.126C17.7006 56.126 18.6946 55.398 19.1566 54.572V56H20.4446V48.328H19.1566V49.728C18.7086 48.93 17.7286 48.202 16.3006 48.202C14.2426 48.202 12.6606 49.742 12.6606 52.136ZM19.1566 52.15C19.1566 53.956 17.9526 55.006 16.5526 55.006C15.1526 55.006 13.9626 53.942 13.9626 52.136C13.9626 50.33 15.1526 49.308 16.5526 49.308C17.9526 49.308 19.1566 50.372 19.1566 52.15ZM22.1215 52.15C22.1215 54.586 23.6755 56.126 25.8595 56.126C27.7635 56.126 29.0095 55.062 29.4015 53.536H28.0295C27.7495 54.502 26.9935 55.048 25.8595 55.048C24.4595 55.048 23.4235 54.054 23.4235 52.15C23.4235 50.274 24.4595 49.28 25.8595 49.28C26.9935 49.28 27.7635 49.868 28.0295 50.792H29.4015C29.0095 49.182 27.7635 48.202 25.8595 48.202C23.6755 48.202 22.1215 49.742 22.1215 52.15ZM42.1139 52.15C42.1139 49.728 40.4199 48.202 38.2359 48.202C36.0659 48.202 34.3579 49.728 34.3579 52.15C34.3579 54.586 36.0099 56.126 38.1799 56.126C40.3639 56.126 42.1139 54.586 42.1139 52.15ZM35.6599 52.15C35.6599 50.218 36.8779 49.308 38.2219 49.308C39.5379 49.308 40.8119 50.218 40.8119 52.15C40.8119 54.096 39.5099 55.006 38.1799 55.006C36.8499 55.006 35.6599 54.096 35.6599 52.15ZM49.3049 53.914C49.2489 51.17 44.7969 52.164 44.7969 50.344C44.7969 49.728 45.3569 49.28 46.2949 49.28C47.3169 49.28 47.9049 49.84 47.9609 50.61H49.2349C49.1509 49.112 48.0309 48.202 46.3369 48.202C44.6289 48.202 43.5229 49.168 43.5229 50.344C43.5229 53.2 48.0589 52.206 48.0589 53.914C48.0589 54.544 47.4989 55.048 46.4909 55.048C45.4129 55.048 44.7549 54.488 44.6849 53.746H43.3689C43.4529 55.146 44.7129 56.126 46.5049 56.126C48.1989 56.126 49.3049 55.174 49.3049 53.914Z" fill="white"/>
</svg>
