<svg width="49" height="49" viewBox="0 0 49 49" fill="none" xmlns="http://www.w3.org/2000/svg">
<path opacity="0.2" d="M48 24.5C48 11.526 37.474 1 24.5 1C11.526 1 1 11.526 1 24.5C1 37.474 11.526 48 24.5 48C37.474 48 48 37.474 48 24.5Z" stroke="white" stroke-miterlimit="10"/>
<path opacity="0.5" d="M19.6433 34.1007L33.6515 25.6383C33.8468 25.5193 34.0082 25.3521 34.1202 25.1528C34.2321 24.9534 34.291 24.7286 34.291 24.5C34.291 24.2713 34.2321 24.0465 34.1202 23.8472C34.0082 23.6478 33.8468 23.4807 33.6515 23.3617L19.6433 14.8993C19.4425 14.779 19.2134 14.7142 18.9793 14.7117C18.7453 14.7092 18.5148 14.7691 18.3115 14.885C18.1081 15.001 17.9393 15.169 17.8224 15.3717C17.7054 15.5745 17.6445 15.8047 17.6458 16.0388V32.9612C17.6445 33.1953 17.7054 33.4255 17.8224 33.6282C17.9393 33.831 18.1081 33.9989 18.3115 34.1149C18.5148 34.2309 18.7453 34.2907 18.9793 34.2882C19.2134 34.2857 19.4425 34.221 19.6433 34.1007Z" fill="white"/>
</svg>
