<svg width="64" height="62" viewBox="0 0 64 62" fill="none" xmlns="http://www.w3.org/2000/svg">
<path d="M17 25.8716L29.2957 27.5662V15.8295H17V25.8716Z" fill="white"/>
<path d="M17 14.3149H29.2957V2.43396L17 4.12857V14.3149Z" fill="white"/>
<path d="M30.6478 27.7467L46.9999 30V15.8295V15.8293H30.6478V27.7467Z" fill="white"/>
<path d="M30.6481 2.25359V14.3149H47V0L30.6481 2.25359Z" fill="white"/>
<path d="M3.052 56.014L4.466 56L6.818 48.146L9.086 56H10.514L13.342 46.242H11.97L9.828 54.488L7.588 46.242H6.16L3.808 54.516L1.68 46.242H0.322L3.052 56.014ZM14.7362 56H16.0102V48.328H14.7362V56ZM15.3942 47.082C15.8562 47.082 16.2342 46.704 16.2342 46.214C16.2342 45.724 15.8562 45.346 15.3942 45.346C14.9042 45.346 14.5262 45.724 14.5262 46.214C14.5262 46.704 14.9042 47.082 15.3942 47.082ZM23.7955 56H25.0555V51.478C25.0555 49.28 23.6975 48.188 21.9195 48.188C20.8835 48.188 19.9595 48.622 19.4555 49.42V48.328H18.1815V56H19.4555V51.758C19.4555 50.106 20.3515 49.294 21.6535 49.294C22.9415 49.294 23.7955 50.092 23.7955 51.66V56ZM26.6606 52.136C26.6606 54.516 28.2426 56.126 30.3006 56.126C31.7006 56.126 32.6946 55.412 33.1566 54.558V56H34.4446V45.64H33.1566V49.7C32.6246 48.818 31.5186 48.202 30.3146 48.202C28.2426 48.202 26.6606 49.742 26.6606 52.136ZM33.1566 52.15C33.1566 53.956 31.9526 55.006 30.5526 55.006C29.1526 55.006 27.9626 53.942 27.9626 52.136C27.9626 50.33 29.1526 49.308 30.5526 49.308C31.9526 49.308 33.1566 50.372 33.1566 52.15ZM43.8775 52.15C43.8775 49.728 42.1835 48.202 39.9995 48.202C37.8295 48.202 36.1215 49.728 36.1215 52.15C36.1215 54.586 37.7735 56.126 39.9435 56.126C42.1275 56.126 43.8775 54.586 43.8775 52.15ZM37.4235 52.15C37.4235 50.218 38.6415 49.308 39.9855 49.308C41.3015 49.308 42.5755 50.218 42.5755 52.15C42.5755 54.096 41.2735 55.006 39.9435 55.006C38.6135 55.006 37.4235 54.096 37.4235 52.15ZM47.0506 56H48.3666L50.2146 49.91L52.0626 56H53.3786L55.7726 48.328H54.5126L52.7766 54.782L50.9146 48.328H49.6126L47.7086 54.768L45.9446 48.328H44.6426L47.0506 56ZM62.553 53.914C62.497 51.17 58.045 52.164 58.045 50.344C58.045 49.728 58.605 49.28 59.543 49.28C60.565 49.28 61.153 49.84 61.209 50.61H62.483C62.399 49.112 61.279 48.202 59.585 48.202C57.877 48.202 56.771 49.168 56.771 50.344C56.771 53.2 61.307 52.206 61.307 53.914C61.307 54.544 60.747 55.048 59.739 55.048C58.661 55.048 58.003 54.488 57.933 53.746H56.617C56.701 55.146 57.961 56.126 59.753 56.126C61.447 56.126 62.553 55.174 62.553 53.914Z" fill="white"/>
</svg>
